<svg width="60" height="60" viewBox="0 0 60 60" fill="none" xmlns="http://www.w3.org/2000/svg">
<path d="M39.6 30C39.6 31.8987 39.037 33.7548 37.9821 35.3335C36.9272 36.9122 35.4279 38.1426 33.6738 38.8692C31.9196 39.5958 29.9894 39.786 28.1271 39.4155C26.2649 39.0451 24.5544 38.1308 23.2118 36.7882C21.8692 35.4456 20.9549 33.7351 20.5845 31.8729C20.214 30.0107 20.4042 28.0804 21.1308 26.3262C21.8574 24.5721 23.0878 23.0728 24.6665 22.0179C26.2452 20.963 28.1013 20.4 30 20.4C32.5436 20.4079 34.9808 21.4219 36.7795 23.2205C38.5781 25.0192 39.5921 27.4564 39.6 30ZM60 16.8V43.2C60 47.6556 58.23 51.9288 55.0794 55.0794C51.9288 58.23 47.6556 60 43.2 60H16.8C12.3444 60 8.07122 58.23 4.92061 55.0794C1.76999 51.9288 0 47.6556 0 43.2V16.8C0 12.3444 1.76999 8.07122 4.92061 4.92061C8.07122 1.76999 12.3444 0 16.8 0H43.2C47.6556 0 51.9288 1.76999 55.0794 4.92061C58.23 8.07122 60 12.3444 60 16.8ZM44.4 30C44.4 27.152 43.5555 24.3679 41.9732 21.9998C40.3909 19.6317 38.1419 17.786 35.5106 16.6961C32.8794 15.6062 29.984 15.3211 27.1907 15.8767C24.3974 16.4323 21.8315 17.8038 19.8177 19.8177C17.8038 21.8315 16.4323 24.3974 15.8767 27.1907C15.3211 29.984 15.6062 32.8794 16.6961 35.5106C17.786 38.1419 19.6317 40.3909 21.9998 41.9732C24.3679 43.5555 27.152 44.4 30 44.4C33.8191 44.4 37.4818 42.8829 40.1823 40.1823C42.8829 37.4818 44.4 33.8191 44.4 30ZM49.2 14.4C49.2 13.688 48.9889 12.992 48.5933 12.3999C48.1977 11.8079 47.6355 11.3465 46.9777 11.074C46.3198 10.8016 45.596 10.7303 44.8977 10.8692C44.1993 11.0081 43.5579 11.3509 43.0544 11.8544C42.551 12.3579 42.2081 12.9993 42.0692 13.6977C41.9303 14.396 42.0016 15.1198 42.274 15.7777C42.5465 16.4355 43.0079 16.9977 43.5999 17.3933C44.192 17.7889 44.888 18 45.6 18C46.5548 18 47.4705 17.6207 48.1456 16.9456C48.8207 16.2705 49.2 15.3548 49.2 14.4Z" fill="#D1A954"/>
</svg>
