<svg width="22" height="30" viewBox="0 0 22 30" fill="none" xmlns="http://www.w3.org/2000/svg">
<path d="M11.0976 6.57446C8.98333 6.57446 7.26245 8.29534 7.26245 10.4096C7.26245 12.5238 8.98333 14.2447 11.0976 14.2447C13.2118 14.2447 14.9327 12.5238 14.9327 10.4096C14.9327 8.29534 13.2118 6.57446 11.0976 6.57446ZM11.0976 13.149C9.58708 13.149 8.3582 11.9201 8.3582 10.4096C8.3582 8.8991 9.58708 7.67021 11.0976 7.67021C12.6081 7.67021 13.837 8.8991 13.837 10.4096C13.837 11.9201 12.6081 13.149 11.0976 13.149Z" fill="#D1A954"/>
<path d="M18.4302 3.07741C16.4458 1.09301 13.8072 0 11.001 0C8.19422 0 5.5562 1.09301 3.5718 3.07741C-0.100606 6.74927 -0.556986 13.658 2.58343 17.8437L11.001 30L19.4059 17.8607C22.559 13.658 22.1026 6.74927 18.4302 3.07741ZM18.5173 17.2203L11.001 28.0748L3.47263 17.2033C0.624233 13.4054 1.0324 7.16621 4.34704 3.85211C6.12435 2.0748 8.48733 1.09575 11.001 1.09575C13.5146 1.09575 15.8776 2.0748 17.6555 3.85211C20.9701 7.16621 21.3783 13.4054 18.5173 17.2203Z" fill="#D1A954"/>
</svg>
