<svg width="60" height="60" viewBox="0 0 60 60" fill="none" xmlns="http://www.w3.org/2000/svg">
<path fill-rule="evenodd" clip-rule="evenodd" d="M30 60C46.5685 60 60 46.5685 60 30C60 13.4315 46.5685 0 30 0C13.4315 0 0 13.4315 0 30C0 46.5685 13.4315 60 30 60ZM34.166 10.0093C32.8647 10.0113 31.561 10.0133 30.2513 10.0333C30.22 14.2206 30.2213 18.4079 30.2226 22.5992C30.2234 25.1143 30.2242 27.6308 30.2179 30.1497C30.2136 30.935 30.2149 31.719 30.2163 32.5025C30.2202 34.6958 30.2241 36.8849 30.1013 39.083C30.0856 39.695 29.7744 40.2331 29.4738 40.7529C29.4551 40.7852 29.4365 40.8175 29.4179 40.8496C28.4513 42.4329 26.668 43.5162 24.8013 43.5329C22.0014 43.7829 19.3681 41.4829 18.9681 38.7496C18.9655 38.6099 18.9609 38.4693 18.9563 38.3283C18.9312 37.5617 18.9058 36.7843 19.2014 36.0663C19.6181 34.883 20.4181 33.833 21.4681 33.1497C22.918 32.1497 24.8513 31.9997 26.5013 32.5331C26.5013 31.4759 26.5197 30.4188 26.5381 29.3617C26.5625 27.9522 26.587 26.5427 26.568 25.1331C22.9514 24.4498 19.0847 25.5998 16.3181 27.9998C13.8848 30.0664 12.3182 33.0997 12.0182 36.2663C11.9848 37.083 12.0015 37.9163 12.0348 38.7496C12.3848 42.6496 14.7515 46.2829 18.1181 48.2662C20.1514 49.4662 22.5347 50.1162 24.918 49.9828C28.8013 49.9162 32.5846 47.8329 34.7679 44.6329C36.1179 42.7163 36.8845 40.3996 37.0179 38.0663C37.0491 35.0352 37.0478 31.9976 37.0465 28.9575C37.0457 27.1333 37.0449 25.3082 37.0512 23.4832C37.9178 24.0498 38.8012 24.5998 39.7512 25.0331C41.9345 26.0665 44.3511 26.5665 46.7511 26.6498V19.9332C44.1844 19.6499 41.5511 18.7999 39.6845 16.9499C37.8178 15.1499 36.9012 12.55 36.7679 10C35.9009 10.0067 35.034 10.008 34.166 10.0093Z" fill="#D1A954"/>
</svg>
