<svg aria-hidden="true" xmlns="http://www.w3.org/2000/svg" xmlns:xlink="http://www.w3.org/1999/xlink"><symbol viewBox="0 0 60 60" id="Vector" xmlns="http://www.w3.org/2000/svg">
<path d="M60 30C60 13.44 46.56 0 30 0C13.44 0 0 13.44 0 30C0 44.52 10.32 56.61 24 59.4V39H18V30H24V22.5C24 16.71 28.71 12 34.5 12H42V21H36C34.35 21 33 22.35 33 24V30H42V39H33V59.85C48.15 58.35 60 45.57 60 30Z"/>
</symbol><symbol viewBox="0 0 60 60" id="facebook" xmlns="http://www.w3.org/2000/svg">
<path d="M60 30C60 13.44 46.56 0 30 0C13.44 0 0 13.44 0 30C0 44.52 10.32 56.61 24 59.4V39H18V30H24V22.5C24 16.71 28.71 12 34.5 12H42V21H36C34.35 21 33 22.35 33 24V30H42V39H33V59.85C48.15 58.35 60 45.57 60 30Z"/>
</symbol><symbol viewBox="0 0 60 60" id="instagram" xmlns="http://www.w3.org/2000/svg">
<path d="M39.6 30C39.6 31.8987 39.037 33.7548 37.9821 35.3335C36.9272 36.9122 35.4279 38.1426 33.6738 38.8692C31.9196 39.5958 29.9894 39.786 28.1271 39.4155C26.2649 39.0451 24.5544 38.1308 23.2118 36.7882C21.8692 35.4456 20.9549 33.7351 20.5845 31.8729C20.214 30.0107 20.4042 28.0804 21.1308 26.3262C21.8574 24.5721 23.0878 23.0728 24.6665 22.0179C26.2452 20.963 28.1013 20.4 30 20.4C32.5436 20.4079 34.9808 21.4219 36.7795 23.2205C38.5781 25.0192 39.5921 27.4564 39.6 30ZM60 16.8V43.2C60 47.6556 58.23 51.9288 55.0794 55.0794C51.9288 58.23 47.6556 60 43.2 60H16.8C12.3444 60 8.07122 58.23 4.92061 55.0794C1.76999 51.9288 0 47.6556 0 43.2V16.8C0 12.3444 1.76999 8.07122 4.92061 4.92061C8.07122 1.76999 12.3444 0 16.8 0H43.2C47.6556 0 51.9288 1.76999 55.0794 4.92061C58.23 8.07122 60 12.3444 60 16.8ZM44.4 30C44.4 27.152 43.5555 24.3679 41.9732 21.9998C40.3909 19.6317 38.1419 17.786 35.5106 16.6961C32.8794 15.6062 29.984 15.3211 27.1907 15.8767C24.3974 16.4323 21.8315 17.8038 19.8177 19.8177C17.8038 21.8315 16.4323 24.3974 15.8767 27.1907C15.3211 29.984 15.6062 32.8794 16.6961 35.5106C17.786 38.1419 19.6317 40.3909 21.9998 41.9732C24.3679 43.5555 27.152 44.4 30 44.4C33.8191 44.4 37.4818 42.8829 40.1823 40.1823C42.8829 37.4818 44.4 33.8191 44.4 30ZM49.2 14.4C49.2 13.688 48.9889 12.992 48.5933 12.3999C48.1977 11.8079 47.6355 11.3465 46.9777 11.074C46.3198 10.8016 45.596 10.7303 44.8977 10.8692C44.1993 11.0081 43.5579 11.3509 43.0544 11.8544C42.551 12.3579 42.2081 12.9993 42.0692 13.6977C41.9303 14.396 42.0016 15.1198 42.274 15.7777C42.5465 16.4355 43.0079 16.9977 43.5999 17.3933C44.192 17.7889 44.888 18 45.6 18C46.5548 18 47.4705 17.6207 48.1456 16.9456C48.8207 16.2705 49.2 15.3548 49.2 14.4Z"/>
</symbol><symbol viewBox="0 0 22 30" id="location" xmlns="http://www.w3.org/2000/svg">
<path d="M11.0976 6.57446C8.98333 6.57446 7.26245 8.29534 7.26245 10.4096C7.26245 12.5238 8.98333 14.2447 11.0976 14.2447C13.2118 14.2447 14.9327 12.5238 14.9327 10.4096C14.9327 8.29534 13.2118 6.57446 11.0976 6.57446ZM11.0976 13.149C9.58708 13.149 8.3582 11.9201 8.3582 10.4096C8.3582 8.8991 9.58708 7.67021 11.0976 7.67021C12.6081 7.67021 13.837 8.8991 13.837 10.4096C13.837 11.9201 12.6081 13.149 11.0976 13.149Z"/>
<path d="M18.4302 3.07741C16.4458 1.09301 13.8072 0 11.001 0C8.19422 0 5.5562 1.09301 3.5718 3.07741C-0.100606 6.74927 -0.556986 13.658 2.58343 17.8437L11.001 30L19.4059 17.8607C22.559 13.658 22.1026 6.74927 18.4302 3.07741ZM18.5173 17.2203L11.001 28.0748L3.47263 17.2033C0.624233 13.4054 1.0324 7.16621 4.34704 3.85211C6.12435 2.0748 8.48733 1.09575 11.001 1.09575C13.5146 1.09575 15.8776 2.0748 17.6555 3.85211C20.9701 7.16621 21.3783 13.4054 18.5173 17.2203Z"/>
</symbol><symbol viewBox="0 0 22 16" id="mail" xmlns="http://www.w3.org/2000/svg">
<path d="M17.8123 12.2592C17.7251 12.2592 17.6378 12.2272 17.5697 12.1627L13.4878 8.33332C13.3452 8.19996 13.3381 7.97508 13.4722 7.83249C13.6063 7.68848 13.8298 7.68209 13.9738 7.81688L18.0557 11.6462C18.1983 11.7796 18.2054 12.0045 18.0713 12.1471C18.001 12.2216 17.9074 12.2592 17.8123 12.2592Z"/>
<path d="M4.18745 12.2593C4.0931 12.2593 3.99875 12.2217 3.92852 12.1472C3.79444 12.0047 3.80154 11.7798 3.94413 11.6464L8.02745 7.81705C8.17075 7.68368 8.39563 7.68936 8.529 7.83265C8.66307 7.97524 8.65598 8.20012 8.51339 8.33349L4.43007 12.1628C4.36196 12.2274 4.27471 12.2593 4.18745 12.2593Z"/>
<path d="M20.2265 15.8196H1.77351C0.79595 15.8196 0 15.0244 0 14.0461V1.95295C0 0.974684 0.79595 0.179443 1.77351 0.179443H20.2265C21.2041 0.179443 22 0.974684 22 1.95295V14.0461C22 15.0244 21.2041 15.8196 20.2265 15.8196ZM1.77351 0.888846C1.18683 0.888846 0.709403 1.36627 0.709403 1.95295V14.0461C0.709403 14.6328 1.18683 15.1102 1.77351 15.1102H20.2265C20.8132 15.1102 21.2906 14.6328 21.2906 14.0461V1.95295C21.2906 1.36627 20.8132 0.888846 20.2265 0.888846H1.77351Z"/>
<path d="M10.9998 9.78186C10.5281 9.78186 10.0563 9.62508 9.69738 9.31224L0.588644 1.36622C0.441088 1.23781 0.425482 1.01364 0.553883 0.865378C0.683704 0.717822 0.907166 0.704343 1.05472 0.831326L10.1635 8.77664C10.6168 9.17177 11.3829 9.17177 11.8355 8.77664L20.9329 0.844096C21.0797 0.715694 21.3032 0.729882 21.4337 0.878147C21.5621 1.02641 21.5472 1.24987 21.3997 1.37899L12.3023 9.31153C11.9426 9.62508 11.4716 9.78186 10.9998 9.78186Z"/>
</symbol><symbol viewBox="0 0 20 30" id="phone" xmlns="http://www.w3.org/2000/svg">
<path d="M17.7627 0H2.23715C1.18984 0 0.337891 0.852011 0.337891 1.89932V28.1007C0.337891 29.148 1.1899 30.0001 2.23721 30.0001H17.7627C18.81 30.0001 19.6621 29.1481 19.6621 28.1007V1.89932C19.662 0.852011 18.81 0 17.7627 0ZM1.28965 4.77375H18.7103V24.6138H1.28965V4.77375ZM2.23715 0.951755H17.7627C18.2852 0.951755 18.7103 1.37681 18.7103 1.89932V4.13924H1.28965V1.89932C1.28965 1.37681 1.7147 0.951755 2.23715 0.951755ZM17.7627 29.0482H2.23715C1.7147 29.0482 1.28958 28.6232 1.28958 28.1007V25.2483H18.7102V28.1007C18.7102 28.6232 18.2852 29.0482 17.7627 29.0482Z"/>
<path d="M9.99988 25.6689C9.14045 25.6689 8.44128 26.3682 8.44128 27.2276C8.44128 28.087 9.14051 28.7862 9.99988 28.7862C10.8593 28.7862 11.5585 28.087 11.5585 27.2276C11.5585 26.3682 10.8593 25.6689 9.99988 25.6689ZM9.99988 28.1517C9.49031 28.1517 9.07579 27.7371 9.07579 27.2276C9.07579 26.718 9.49031 26.3034 9.99988 26.3034C10.5095 26.3034 10.924 26.718 10.924 27.2276C10.924 27.7371 10.5095 28.1517 9.99988 28.1517Z"/>
<path d="M7.84276 3.02318H12.1574C12.3326 3.02318 12.4746 2.88111 12.4746 2.70592C12.4746 2.53074 12.3326 2.38867 12.1574 2.38867H7.84276C7.66751 2.38867 7.52551 2.53074 7.52551 2.70592C7.52551 2.88111 7.66751 3.02318 7.84276 3.02318Z"/>
<path d="M6.7008 3.02318C6.78392 3.02318 6.86577 2.98955 6.92478 2.93054C6.98379 2.87089 7.01805 2.78968 7.01805 2.70592C7.01805 2.62217 6.98379 2.54095 6.92478 2.48131C6.8657 2.4223 6.78385 2.38867 6.7008 2.38867C6.61704 2.38867 6.53576 2.4223 6.47618 2.48131C6.41717 2.54032 6.38354 2.62217 6.38354 2.70592C6.38354 2.78968 6.41717 2.87089 6.47618 2.93054C6.53519 2.98955 6.61704 3.02318 6.7008 3.02318Z"/>
</symbol><symbol viewBox="0 0 60 60" id="tiktok" xmlns="http://www.w3.org/2000/svg">
<path fill-rule="evenodd" clip-rule="evenodd" d="M30 60C46.5685 60 60 46.5685 60 30C60 13.4315 46.5685 0 30 0C13.4315 0 0 13.4315 0 30C0 46.5685 13.4315 60 30 60ZM34.166 10.0093C32.8647 10.0113 31.561 10.0133 30.2513 10.0333C30.22 14.2206 30.2213 18.4079 30.2226 22.5992C30.2234 25.1143 30.2242 27.6308 30.2179 30.1497C30.2136 30.935 30.2149 31.719 30.2163 32.5025C30.2202 34.6958 30.2241 36.8849 30.1013 39.083C30.0856 39.695 29.7744 40.2331 29.4738 40.7529C29.4551 40.7852 29.4365 40.8175 29.4179 40.8496C28.4513 42.4329 26.668 43.5162 24.8013 43.5329C22.0014 43.7829 19.3681 41.4829 18.9681 38.7496C18.9655 38.6099 18.9609 38.4693 18.9563 38.3283C18.9312 37.5617 18.9058 36.7843 19.2014 36.0663C19.6181 34.883 20.4181 33.833 21.4681 33.1497C22.918 32.1497 24.8513 31.9997 26.5013 32.5331C26.5013 31.4759 26.5197 30.4188 26.5381 29.3617C26.5625 27.9522 26.587 26.5427 26.568 25.1331C22.9514 24.4498 19.0847 25.5998 16.3181 27.9998C13.8848 30.0664 12.3182 33.0997 12.0182 36.2663C11.9848 37.083 12.0015 37.9163 12.0348 38.7496C12.3848 42.6496 14.7515 46.2829 18.1181 48.2662C20.1514 49.4662 22.5347 50.1162 24.918 49.9828C28.8013 49.9162 32.5846 47.8329 34.7679 44.6329C36.1179 42.7163 36.8845 40.3996 37.0179 38.0663C37.0491 35.0352 37.0478 31.9976 37.0465 28.9575C37.0457 27.1333 37.0449 25.3082 37.0512 23.4832C37.9178 24.0498 38.8012 24.5998 39.7512 25.0331C41.9345 26.0665 44.3511 26.5665 46.7511 26.6498V19.9332C44.1844 19.6499 41.5511 18.7999 39.6845 16.9499C37.8178 15.1499 36.9012 12.55 36.7679 10C35.9009 10.0067 35.034 10.008 34.166 10.0093Z"/>
</symbol></svg>