<svg width="201" height="103" viewBox="0 0 201 103" fill="none" xmlns="http://www.w3.org/2000/svg">
<path d="M50.5067 2.06562C42.3239 10.3656 37.3028 21.0611 35.9058 33.1854C35.2335 39.0584 35.5171 45.6564 36.7041 51.5715C39.6453 66.3224 47.9121 79.2242 59.3828 87.0199C61.6517 88.5643 64.782 90.3924 65.1392 90.3924C65.4543 90.3924 65.1812 90.1613 64.1413 89.5519C60.4227 87.3771 57.3135 84.9606 54.1727 81.8402C50.034 77.7007 47.1873 73.6873 44.5613 68.2766C37.9751 54.6919 37.0297 37.9238 41.9352 21.6494C44.0991 14.5051 47.6495 7.21373 51.7462 1.5298C52.1349 0.993977 52.45 0.531698 52.45 0.510686C52.45 0.479167 52.366 0.458154 52.2714 0.458154C52.1769 0.458154 51.3786 1.18309 50.5067 2.06562Z" fill="#D1A954" fill-opacity="0.9"/>
<path d="M28.6578 6.17359C27.1452 6.5308 25.9582 7.18219 24.9288 8.23283C23.6788 9.5146 23.059 10.8804 22.9645 12.6245C22.8384 14.7363 23.3636 16.2492 24.6557 17.5204C26.3994 19.2435 28.7734 19.8318 30.2965 18.9178C31.3364 18.2874 31.8511 16.7325 31.3889 15.6083C31.0003 14.6732 29.9078 14.0113 28.9939 14.1584C28.5738 14.2319 27.87 14.5892 27.87 14.7363C27.87 14.7678 28.0696 14.8938 28.3112 15.0094C29.162 15.4087 29.4141 16.2071 28.9309 16.9846C28.5212 17.657 27.7544 17.8461 26.9561 17.4889C25.9057 17.0056 25.2544 15.8814 25.1599 14.379C25.0128 11.7945 26.4414 9.91384 29.078 9.23093C29.8763 9.03131 31.6305 9.0208 32.4393 9.23093C32.786 9.31498 33.4688 9.58815 33.9625 9.82979C34.6768 10.1765 35.0339 10.4497 35.7587 11.1641C36.5045 11.91 36.7461 12.2357 37.1558 13.0657C37.807 14.3895 37.9961 15.3036 37.9121 16.7955C37.8806 17.4259 37.8175 18.1298 37.786 18.3399C37.744 18.5816 37.765 18.7392 37.828 18.7392C37.9646 18.7392 38.3428 17.8251 38.6054 16.869C38.889 15.7659 38.91 13.6436 38.6474 12.593C37.9856 10.0399 36.2524 7.95966 33.8259 6.81447C33.4162 6.61485 32.786 6.37321 32.4393 6.27865C31.5675 6.04751 29.4666 5.98447 28.6578 6.17359Z" fill="#D1A954" fill-opacity="0.9"/>
<path d="M78.3325 16.9951C78.0174 17.3103 77.9753 17.4153 77.9753 17.9302C77.9753 18.6131 78.28 19.0648 78.8682 19.2645C79.9081 19.6112 80.9481 18.571 80.6119 17.5519C80.4123 16.9426 79.9607 16.6379 79.2674 16.6379C78.7527 16.6379 78.6476 16.6799 78.3325 16.9951Z" fill="#D1A954" fill-opacity="0.9"/>
<path d="M170.308 16.6799C170.308 16.7114 170.235 17.2263 170.15 17.8041C169.615 21.3763 168.459 24.7173 166.821 27.4174L166.243 28.384L166.117 29.7288C165.192 39.8779 160.539 50.752 153.06 60.2602C152.377 61.1217 152.23 61.3949 152.44 61.3949C152.545 61.3949 154.026 59.7979 155.707 57.8753C160.056 52.8743 164.321 46.8331 167.367 41.3278C168.963 38.4491 170.823 34.4777 172.031 31.3363L172.619 29.7918L172.146 26.3458C171.674 22.9417 170.949 18.3925 170.697 17.2788C170.623 16.9636 170.508 16.6904 170.434 16.6589C170.371 16.6379 170.308 16.6484 170.308 16.6799ZM170.308 24.5912C170.308 24.8749 170.256 25.6103 170.203 26.2512C169.594 32.7231 167.062 39.7834 162.713 47.1063C161.716 48.7768 160.781 50.2267 160.644 50.3107C160.424 50.4473 160.571 50.1006 161.316 48.7558C165.014 42.0843 167.85 34.3621 169.678 26.0411C169.846 25.2321 170.014 24.4651 170.045 24.3285C170.14 23.9188 170.308 24.0869 170.308 24.5912Z" fill="#D1A954" fill-opacity="0.9"/>
<path d="M84.8242 16.9531C83.8263 17.1843 83.4481 18.445 84.1309 19.2645C84.6981 19.9369 85.7906 19.9159 86.3263 19.2225C86.6309 18.8128 86.6834 18.0668 86.4313 17.5835C86.1687 17.0897 85.4649 16.8061 84.8242 16.9531Z" fill="#D1A954" fill-opacity="0.9"/>
<path d="M72.5447 17.5835C71.9039 17.9722 71.6938 18.8232 72.0825 19.4116C72.3556 19.8213 72.6812 19.9894 73.1749 19.9999C74.2254 20.0104 74.8451 18.9283 74.2989 18.0352C73.9102 17.3944 73.1644 17.2052 72.5447 17.5835Z" fill="#D1A954" fill-opacity="0.9"/>
<path d="M91.1267 18.529C90.4755 18.6866 90.0553 19.2645 90.0553 19.9999C90.0553 20.5673 90.3284 21.019 90.8116 21.2712C91.3158 21.5338 91.7675 21.5233 92.2612 21.2502C92.7549 20.9665 92.9965 20.5568 92.9965 19.9789C92.9965 18.9598 92.1246 18.2874 91.1267 18.529Z" fill="#D1A954" fill-opacity="0.9"/>
<path d="M67.177 19.338C66.032 19.9053 66.4942 21.6809 67.7862 21.6809C69.1203 21.6809 69.4774 19.8213 68.2484 19.3065C67.7967 19.1174 67.6076 19.1279 67.177 19.338Z" fill="#D1A954" fill-opacity="0.9"/>
<path d="M96.8726 21.2502C96.1373 21.4813 95.7277 22.0487 95.7277 22.8366C95.7277 23.7192 96.3894 24.339 97.3348 24.3495C97.8915 24.3495 98.2592 24.1289 98.6479 23.5721C99.4042 22.4584 98.1752 20.8404 96.8726 21.2502Z" fill="#D1A954" fill-opacity="0.9"/>
<path d="M62.5867 21.8595C62.2401 21.9435 61.8094 22.4268 61.7359 22.805C61.5993 23.53 62.1771 24.2024 62.9544 24.2024C63.8367 24.2024 64.3935 23.1938 63.9418 22.4268C63.8472 22.2692 63.6897 22.0906 63.5951 22.0276C63.364 21.8805 62.8493 21.7964 62.5867 21.8595Z" fill="#D1A954" fill-opacity="0.9"/>
<path d="M78.5532 23.5405C76.0532 23.7401 74.4565 24.0553 72.2927 24.7698C68.9313 25.8939 65.4859 27.7536 62.7443 29.9389C61.2527 31.1261 58.6896 33.7737 57.5236 35.3391C54.3408 39.6047 52.2505 44.4166 51.3051 49.7223C50.9165 51.8446 50.7484 53.8513 50.8219 55.4062C51.074 60.7119 52.198 65.2192 54.3829 69.6738C56.3367 73.6242 58.511 76.608 61.7569 79.7809C64.593 82.5441 66.883 84.1831 70.1498 85.7696C74.1099 87.6922 77.7024 88.7849 82.1247 89.4047C84.0364 89.6674 88.8159 89.7199 90.8957 89.5098C94.026 89.1736 98.1437 88.3226 98.1437 88.0074C98.1437 87.8918 98.0702 87.8603 97.9126 87.9023C95.087 88.6063 89.6562 88.932 86.3789 88.6063C79.9608 87.9654 73.9733 85.738 68.7002 82.0503C65.696 79.949 62.198 75.9987 59.9606 72.1849C56.3577 66.0176 54.8556 58.2114 56.0635 51.9917C57.5657 44.3221 61.7989 37.8186 67.8914 33.8472C70.4859 32.1557 73.7948 30.8004 76.7255 30.2436C81.0953 29.4241 86.2423 30.2015 90.5596 32.3448C96.1479 35.1185 99.5828 39.5102 100.896 45.5303C101.095 46.4969 101.127 46.9381 101.127 49.0499C101.137 51.1827 101.106 51.5924 100.896 52.5695C100.161 55.9316 98.8475 58.369 96.6206 60.5438C94.5722 62.54 91.6836 64.053 89.068 64.5047C86.9356 64.8724 85.3285 64.2316 84.5196 62.6871C83.7318 61.1847 83.8369 59.7349 84.8033 58.6317C85.8012 57.497 87.2403 57.2764 88.7214 58.0223C89.4567 58.4005 89.5092 58.348 89.3411 57.3184C89.089 55.8055 88.1331 54.5762 86.6625 53.8828C83.5322 52.3909 79.8768 54.0089 78.7003 57.4024C78.3851 58.3375 78.3011 60.2076 78.5427 61.2373C78.8263 62.414 79.362 63.4121 80.2129 64.2946C81.5049 65.6709 83.3117 66.7006 85.2865 67.1943C86.0953 67.4045 86.4839 67.436 88.2172 67.4255C90.0239 67.4255 90.3285 67.4045 91.4735 67.1313C95.6752 66.1542 99.7614 63.6642 102.261 60.5649C103.742 58.7262 105.119 56.2362 105.822 54.1455C108.396 46.3918 105.969 37.4929 99.5093 31.0315C95.0449 26.5558 89.7193 24.1394 83.1226 23.572C82.0091 23.4775 79.5406 23.4565 78.5532 23.5405Z" fill="#D1A954" fill-opacity="0.9"/>
<path d="M58.0593 25.3372C57.4815 25.7995 57.4395 26.4824 57.9542 26.9972C58.5635 27.6065 59.4353 27.4384 59.761 26.661C60.0761 25.9045 59.5509 25.1481 58.721 25.1481C58.4584 25.1481 58.1853 25.2321 58.0593 25.3372Z" fill="#D1A954" fill-opacity="0.9"/>
<path d="M101.631 25.4631C101.064 25.8099 100.854 26.2511 100.896 27.0076C100.938 27.5959 100.98 27.7115 101.295 28.0372C102.387 29.1614 104.131 28.4364 104.131 26.8605C104.131 25.9044 103.469 25.253 102.503 25.253C102.167 25.253 101.852 25.3266 101.631 25.4631Z" fill="#D1A954" fill-opacity="0.9"/>
<path d="M145.098 35.129C142.703 35.3602 140.686 36.4423 139.184 38.3019C138.617 39.0059 137.839 40.5398 137.661 41.3278C136.82 44.8684 138.816 48.5246 142.094 49.4702C142.545 49.6068 142.965 49.6383 143.669 49.6068C144.583 49.5542 145.518 49.3021 145.518 49.092C145.518 49.0499 145.129 49.0079 144.657 49.0184C144.173 49.0184 143.575 48.9659 143.312 48.8923C140.56 48.1359 138.921 44.9525 139.867 42.2103C140.591 40.1406 142.398 38.6066 144.573 38.2179C148.081 37.5875 151.61 40.004 152.598 43.6917C153.932 48.6717 150.266 56.2678 142.409 64.8094C138.133 69.4637 132.178 74.7799 126.873 78.6778C125.455 79.7179 125.171 79.9911 125.465 79.9911C125.675 79.9911 128.984 77.9739 130.896 76.7026C138.648 71.502 147.01 63.7903 151.18 57.9803C155.97 51.3193 157.272 45.6564 155.077 40.9495C153.239 36.9992 149.342 34.7298 145.098 35.129Z" fill="#D1A954" fill-opacity="0.9"/>
<path d="M5.42233 40.5923C1.14709 40.6343 0.285735 40.6869 0.464308 40.8445C0.485316 40.8655 0.958009 41.0546 1.50423 41.2752C4.73955 42.557 7.48117 44.3326 9.69757 46.5914L10.8005 47.7051L12.0085 47.9993C21.0947 50.2056 30.0969 56.2888 37.5654 65.2507C38.6684 66.5745 38.8995 66.7951 38.8995 66.5325C38.8995 66.3328 36.3364 62.6136 34.6347 60.3442C28.6998 52.4435 22.2712 46.1922 15.2333 41.4643L13.7732 40.4872L12.0295 40.5083C11.0631 40.5293 8.09042 40.5608 5.42233 40.5923ZM9.37194 42.7041C14.5085 44.0489 20.601 47.5685 26.2943 52.5065C27.849 53.8618 30.349 56.3203 30.265 56.4043C30.1914 56.4884 30.0549 56.3833 28.2691 54.8284C22.912 50.1321 18.0275 47.1483 9.57152 43.3765C8.42655 42.8722 7.52318 42.4099 7.5547 42.3679C7.61772 42.2628 7.72277 42.2838 9.37194 42.7041Z" fill="#D1A954" fill-opacity="0.9"/>
<path d="M178.922 48.9554C178.775 48.9764 178.186 49.0709 177.609 49.1655C175.655 49.4807 173.691 50.1426 171.443 51.2668C168.575 52.6956 166.474 54.135 161.327 58.1904C154.058 63.9164 145.297 70.4934 139.846 74.3177C127.01 83.3216 115.738 89.1631 104.919 92.4306C99.3727 94.1116 95.2551 94.9206 88.9315 95.6035C88.6269 95.635 88.3748 95.7086 88.3748 95.7611C88.3748 95.9607 91.2949 95.8136 94.8349 95.4249C108.522 93.9435 122.493 88.7849 137.913 79.5078C145.424 75.0006 154.856 68.5287 164.426 61.3318C169.289 57.6756 171.085 56.4989 173.67 55.2592C177.493 53.4311 181.369 52.9793 185.088 53.9459C190.928 55.4483 195.361 60.0501 196.632 65.9126C196.905 67.1628 196.905 70.1151 196.642 71.3759C195.876 74.9585 193.859 78.3731 191.39 80.2747C190.602 80.8841 189.268 81.588 188.218 81.9453C187.168 82.3025 185.791 82.355 184.941 82.0608C184.247 81.8192 183.533 81.1888 183.228 80.5479C182.43 78.8669 183.68 76.9968 185.476 77.1859C185.77 77.2174 186.096 77.2699 186.201 77.312C186.695 77.5116 186.107 76.0407 185.455 75.4628C184.195 74.3492 182.167 74.2336 180.676 75.1792C180.035 75.5889 179.541 76.1878 179.111 77.1123C178.775 77.8058 178.764 77.8898 178.764 79.098C178.764 80.3168 178.775 80.3903 179.111 81.0627C179.73 82.3235 181.18 83.3741 182.966 83.8364C183.964 84.0991 186.38 84.0991 187.672 83.8469C193.827 82.6282 198.67 77.6482 200.193 70.9556C200.329 70.3883 200.392 69.5163 200.424 67.8037C200.466 65.5764 200.455 65.3663 200.203 64.116C198.67 56.5725 192.367 50.6154 184.384 49.155C183.428 48.9764 179.583 48.8398 178.922 48.9554Z" fill="#D1A954" fill-opacity="0.9"/>
<path d="M182.409 57.4655C181.211 58.0749 181.159 59.8504 182.304 60.5544C182.798 60.8591 183.712 60.838 184.184 60.5229C184.594 60.2497 185.014 59.5037 185.014 59.031C185.004 58.5582 184.657 57.8858 184.268 57.6126C183.817 57.2869 182.903 57.2134 182.409 57.4655Z" fill="#D1A954" fill-opacity="0.9"/>
<path d="M175.634 58.7157C174.877 58.9784 174.51 59.5037 174.51 60.3127C174.51 61.2583 175.172 61.9202 176.117 61.9202C176.957 61.9202 177.546 61.4684 177.766 60.6699C177.945 59.987 177.556 59.1045 176.926 58.7683C176.59 58.6002 176.022 58.5686 175.634 58.7157Z" fill="#D1A954" fill-opacity="0.9"/>
<path d="M169.258 61.9097C168.858 62.1198 168.417 62.8342 168.417 63.2755C168.417 63.7378 168.848 64.4627 169.258 64.6729C169.961 65.0406 170.749 64.8725 171.295 64.2316C171.527 63.9584 171.569 63.7903 171.569 63.286C171.569 62.7817 171.527 62.6136 171.295 62.3404C170.749 61.6996 169.961 61.5315 169.258 61.9097Z" fill="#D1A954" fill-opacity="0.9"/>
<path d="M163.648 65.4818C163.26 65.7445 162.966 66.2803 162.955 66.7321C162.945 67.6882 163.932 68.4236 164.888 68.182C165.97 67.9088 166.306 66.4484 165.476 65.6499C165.056 65.2402 164.121 65.1561 163.648 65.4818Z" fill="#D1A954" fill-opacity="0.9"/>
<path d="M158.848 68.928C157.944 69.4848 158.049 71.0292 159.016 71.439C159.468 71.6281 159.846 71.6281 160.203 71.439C161.232 70.9032 161.358 69.6109 160.444 68.97C160.066 68.6968 159.247 68.6758 158.848 68.928Z" fill="#D1A954" fill-opacity="0.9"/>
<path d="M32.849 69.8C30.3385 70.0626 27.912 71.0397 25.7796 72.6367C21.1998 76.0933 19.6241 82.7017 22.1451 87.9234C23.5317 90.7916 25.9897 92.8404 29.0254 93.6704C29.7923 93.8805 30.1494 93.912 31.599 93.9015C33.5003 93.891 34.3511 93.7229 35.7167 93.0715C36.7461 92.5882 37.3343 92.1785 38.2587 91.2959C39.6033 89.9931 40.5276 88.4487 40.8428 86.9778C41.3155 84.74 40.5591 83.0169 38.7314 82.1764C38.3007 81.9768 38.0381 81.9348 37.1137 81.9348C36.1684 81.9348 35.9478 81.9663 35.5696 82.1764C34.8658 82.5441 34.4141 83.0064 34.0675 83.6893C33.6473 84.5404 33.6263 85.5174 34.0045 86.2739C34.4246 87.1039 34.7188 87.23 34.8343 86.6206C34.9919 85.8747 36.0318 85.1707 36.8091 85.2968C37.765 85.4544 38.5843 86.3685 38.5843 87.2615C38.5843 88.2491 37.1348 89.9931 35.7377 90.6761C33.6368 91.7162 30.9162 91.4955 28.5528 90.1192C27.4288 89.4573 25.8847 87.9024 25.2754 86.8202C23.6788 83.973 23.6157 80.5269 25.1179 77.5221C25.6431 76.461 26.2523 75.6415 27.2502 74.6749C28.9099 73.0779 30.5801 72.1744 33.0171 71.586C33.8364 71.3864 34.3091 71.3339 35.6431 71.3339C37.4184 71.3234 38.1852 71.4389 39.6768 71.9222C41.3155 72.4476 43.1012 73.4667 44.3197 74.5698C44.8344 75.0216 45.097 75.1582 45.097 74.9691C45.097 74.6644 43.2377 72.9729 41.9772 72.1324C41.1579 71.586 39.6978 70.8506 38.7104 70.4934C37.0612 69.905 34.6347 69.6108 32.849 69.8Z" fill="#D1A954" fill-opacity="0.9"/>
<path d="M154.615 72.0168C153.764 72.6787 153.869 73.887 154.814 74.3387C155.402 74.6224 155.938 74.5278 156.411 74.0551C156.705 73.7609 156.758 73.6348 156.758 73.2251C156.758 72.3005 156.264 71.7962 155.36 71.7962C155.045 71.7962 154.804 71.8697 154.615 72.0168Z" fill="#D1A954" fill-opacity="0.9"/>
<path d="M149.951 75.4104C149.594 75.7466 149.562 75.8201 149.562 76.3559C149.562 76.8707 149.604 76.9758 149.909 77.2805C150.213 77.5852 150.318 77.6272 150.833 77.6272C151.369 77.6272 151.442 77.5957 151.778 77.2385C152.073 76.9023 152.136 76.7657 152.136 76.3559C152.136 75.9252 152.083 75.8201 151.726 75.4629C151.369 75.1057 151.264 75.0531 150.833 75.0531C150.423 75.0531 150.287 75.1162 149.951 75.4104Z" fill="#D1A954" fill-opacity="0.9"/>
<path d="M123.827 93.4498C120.465 93.6599 117.24 93.9856 113.69 94.5004C110.055 95.0152 108.196 95.3619 108.144 95.53C108.102 95.6456 108.217 95.6561 108.763 95.6036C111.589 95.3199 116.894 95.2358 119.782 95.4355C124.562 95.7717 128.942 96.6227 133.27 98.0725L135.476 98.808L136.421 98.6819C138.501 98.3982 141.789 98.5768 144.373 99.1022C144.919 99.2177 145.402 99.2703 145.444 99.2282C145.56 99.1127 145.381 98.9866 142.367 97.169C140.949 96.3075 139.079 95.1518 138.196 94.5844L136.6 93.5548L134.814 93.4498C132.797 93.3237 125.896 93.3237 123.827 93.4498ZM129.331 94.637C131.348 94.8681 133.596 95.2568 135.203 95.6561C136.537 95.9818 139.236 96.8223 139.531 97.0114C139.909 97.2425 139.425 97.211 137.577 96.8643C131.096 95.6456 126.138 95.0362 121.106 94.8051C119.782 94.7525 118.68 94.679 118.648 94.6475C118.574 94.5739 118.827 94.5004 119.31 94.4479C119.541 94.4268 121.547 94.4268 123.774 94.4373C126.673 94.4584 128.249 94.5109 129.331 94.637Z" fill="#D1A954" fill-opacity="0.9"/>
<path d="M61.0846 93.7229C60.7379 93.7964 60.1602 94.4163 60.0762 94.805C59.7925 96.2654 61.6308 97.19 62.5762 96.0553C63.4795 94.9836 62.4921 93.4392 61.0846 93.7229Z" fill="#D1A954" fill-opacity="0.9"/>
<path d="M66.1476 96.1603C65.6118 96.486 65.3702 96.8748 65.3702 97.4211C65.3702 98.3246 65.969 98.9445 66.8408 98.9445C67.7127 98.9445 68.3114 98.3246 68.3114 97.4106C68.3114 96.3284 67.0614 95.6035 66.1476 96.1603Z" fill="#D1A954" fill-opacity="0.9"/>
<path d="M71.5992 97.7363C70.8639 98.0725 70.5067 99.1126 70.8744 99.8271C71.179 100.405 71.5256 100.626 72.2294 100.668C72.8282 100.71 72.9227 100.678 73.2273 100.426C73.679 100.048 73.8786 99.6379 73.8786 99.1021C73.8786 98.5138 73.532 97.9779 72.9962 97.7363C72.45 97.4947 72.1559 97.4947 71.5992 97.7363Z" fill="#D1A954" fill-opacity="0.9"/>
<path d="M96.7781 98.787C95.8222 99.2913 95.4755 100.384 95.9587 101.319C96.2424 101.865 96.7151 102.223 97.2928 102.317C98.5428 102.527 99.6668 101.403 99.4567 100.153C99.2466 98.934 97.839 98.2091 96.7781 98.787Z" fill="#D1A954" fill-opacity="0.9"/>
<path d="M77.5553 98.892C77.1141 99.1232 76.715 99.8376 76.715 100.363C76.715 100.867 77.1036 101.519 77.5448 101.781C77.986 102.033 78.7423 102.054 79.2045 101.813C80.0028 101.393 80.3074 100.279 79.8452 99.4909C79.4041 98.7449 78.3536 98.4613 77.5553 98.892Z" fill="#D1A954" fill-opacity="0.9"/>
<path d="M90.4756 99.3437C89.3831 99.9005 89.0995 101.235 89.8768 102.128C90.8747 103.263 92.5764 102.884 93.0071 101.434C93.4483 99.9636 91.8411 98.6398 90.4756 99.3437Z" fill="#D1A954" fill-opacity="0.9"/>
<path d="M83.9943 99.5224C82.9544 100.279 83.0489 101.897 84.1729 102.485C85.4019 103.147 86.8725 102.212 86.7674 100.825C86.6939 99.8376 86.0111 99.2177 84.9817 99.2177C84.5195 99.2177 84.3305 99.2807 83.9943 99.5224Z" fill="#D1A954" fill-opacity="0.9"/>
</svg>
